<?xml version="1.0" encoding="UTF-8"?>
<!DOCTYPE svg PUBLIC "-//W3C//DTD SVG 1.1//EN" "http://www.w3.org/Graphics/SVG/1.1/DTD/svg11.dtd">
<!-- Creator: CorelDRAW -->
<svg xmlns="http://www.w3.org/2000/svg" xml:space="preserve" width="77.746mm" height="6.023mm" version="1.1" style="shape-rendering:geometricPrecision; text-rendering:geometricPrecision; image-rendering:optimizeQuality; fill-rule:evenodd; clip-rule:evenodd"
viewBox="0 0 7774.6 602.3"
 xmlns:xlink="http://www.w3.org/1999/xlink"
 xmlns:xodm="http://www.corel.com/coreldraw/odm/2003">
 <defs>
  <style type="text/css">
   <![CDATA[
    .fil0 {fill:#FEFEFE}
   ]]>
  </style>
 </defs>
 <g id="Capa_x0020_1">
  <metadata id="CorelCorpID_0Corel-Layer"/>
  <path class="fil0" d="M3513.25 173.84c0,0 18.32,120.27 116.25,191.88 131.12,95.85 214.39,-5.67 94.69,-115.49 -89.42,-82 -210.94,-76.39 -210.94,-76.39zm374.05 230.94c46.65,0 84.46,37.81 84.46,84.46 0,46.65 -37.81,84.46 -84.46,84.46 -46.65,0 -84.46,-37.81 -84.46,-84.46 0,-46.65 37.81,-84.46 84.46,-84.46zm-174.05 93.42l-17.3 -4.58c-94.74,-24.28 -441.91,-101.67 -1007.02,-99.47 -669.84,2.61 -2688.93,104.05 -2688.93,104.05 0,0 2019.09,101.43 2688.93,104.04 565.11,2.2 912.28,-75.19 1007.02,-99.47l17.3 -4.57zm348.1 0l17.3 -4.58c94.74,-24.28 441.91,-101.67 1007.02,-99.47 669.84,2.61 2688.93,104.05 2688.93,104.05 0,0 -2019.09,101.43 -2688.93,104.04 -565.11,2.2 -912.28,-75.19 -1007.02,-99.47l-17.3 -4.57zm-178.58 -498.2c0,0 83.44,88.53 79.51,209.8 -5.3,162.33 -136.56,165.35 -149.31,3.41 -9.49,-120.95 69.8,-213.21 69.8,-213.21zm378.57 173.84c0,0 -18.32,120.27 -116.25,191.88 -131.12,95.85 -214.39,-5.67 -94.69,-115.49 89.42,-82 210.94,-76.39 210.94,-76.39z"/>
 </g>
</svg>
