<?xml version="1.0" encoding="UTF-8"?>
<!DOCTYPE svg PUBLIC "-//W3C//DTD SVG 1.1//EN" "http://www.w3.org/Graphics/SVG/1.1/DTD/svg11.dtd">
<!-- Creator: CorelDRAW -->
<svg xmlns="http://www.w3.org/2000/svg" xml:space="preserve" width="84.709mm" height="18.6436mm" version="1.1" style="shape-rendering:geometricPrecision; text-rendering:geometricPrecision; image-rendering:optimizeQuality; fill-rule:evenodd; clip-rule:evenodd"
viewBox="0 0 8470.9 1864.36"
 xmlns:xlink="http://www.w3.org/1999/xlink"
 xmlns:xodm="http://www.corel.com/coreldraw/odm/2003">
 <defs>
  <style type="text/css">
   <![CDATA[
    .fil0 {fill:#F65F01}
   ]]>
  </style>
 </defs>
 <g id="Capa_x0020_1">
  <metadata id="CorelCorpID_0Corel-Layer"/>
  <path class="fil0" d="M5013.02 100.26c102.29,-64.63 182.33,163.79 39.56,243.49 -102.86,57.42 -102.45,12.2 -85.4,-69.86 6.95,-33.49 28.26,-162.51 45.84,-173.63zm78.9 530.42c27.35,34.46 111.66,56 166.92,33.68 5.89,-39.92 -28.18,-26.48 -54.02,-56.63 -32.17,-37.55 -102.04,-215.47 -102.63,-233.45 57.71,-39.33 84.79,-28.16 122.84,-94.58 30.97,-54.06 28.96,-124.26 -6.51,-168.81 -45.79,-57.51 -274.25,-73.38 -374.76,-53.83 -68.58,13.33 19.68,37.77 27.2,41.29 28.33,13.25 14.47,53.71 7.88,86.14 -12.45,61.33 -23.22,118.32 -35.53,177.56 -12.51,60.25 -25.09,119.79 -37.13,180.51 -27.83,140.42 -92.27,49.59 -92.4,122.16l256.52 0.46 6.27 -17.97 -67.02 -34.02c-0.38,-0.74 14.7,-388.88 119.97,-132.81 22.76,55.36 27.18,105.93 62.4,150.3zm-1795.86 443.56c105.47,-71.45 188.19,160.4 51.51,251.28 -20.17,13.41 -69.65,25.05 -99.86,16.43 -27.15,-7.75 -7.24,-50.59 -0.27,-83.92 8.26,-39.52 24.14,-167.2 48.62,-183.79zm-299.41 562.66c25.65,11.52 157.01,3.66 198.26,4.12 175.78,1.98 -8.08,-55.86 -8.22,-55.89l38.47 -206.42c91.73,-10.6 114.27,17.32 207.88,-28.77 50.43,-24.82 90.41,-70.98 100.27,-141.2 26.05,-185.41 -146.53,-181.01 -300.62,-180.15 -235.24,1.32 -76.84,29.92 -66.51,55.81 11.64,29.18 -63.14,349.59 -73.45,407.48 -29.97,168.26 -96.41,81.7 -96.08,145.02zm-1644.36 -1531.54c8.1,32.84 -68.71,412 -86.96,474.39 -12.08,41.28 -140.47,85.66 -65.17,85.66l399.16 0c36.43,0 67.21,-134.92 55.67,-153.34 -44.13,-1.18 -91.81,168.64 -275.66,102.37 -12.9,-33.74 19.09,-135.93 27.09,-178.06 8.07,-42.51 0.28,-62.05 39.39,-64.21 31.79,-1.75 74.51,-0.76 99.03,10.53l15.93 68.51c40.1,-3.35 66.24,-180.82 61.4,-189.22 -39.11,-19.36 -38.65,39.91 -65.74,58.99 -26.15,18.42 -92.34,9.49 -129.46,10.73 4.85,-43.4 15.64,-96.25 25.75,-138.09 22.19,-91.8 -6.58,-93.98 112.25,-93.98 112.67,0 61.29,74.53 86.39,109.35 39.71,1.92 52.72,-109.65 55.53,-150.34 -60.66,-4.82 -304.76,-1.27 -383.55,-1.24 -96.44,0 25.7,46.16 28.95,47.95zm4677.04 328.28c-26.29,191.77 -199.72,290.42 -155.55,96.72 37.61,-164.92 188.37,-336.13 155.55,-96.72zm-122.38 -68.18c0.56,-45.45 54.36,-173.19 -58.24,-111.49 -28.63,15.69 -119.02,76.18 -99.63,113.03l65 -37.23c8.89,22.93 -77.37,387.54 -92.91,460.06 -23.84,111.33 -83.43,37.01 -80.78,104.38l243.19 -9.54 5.07 -15.55c-16.36,-6.78 -63.95,-31.42 -78.65,-28.94l34.51 -168.03c164.3,-0.9 255.05,-95.67 286.47,-244.51 15.81,-74.9 11.22,-185.7 -78.59,-177.43 -90.86,8.36 -112.52,97.87 -145.44,115.25zm-3559.67 428.25c-12.34,-51.54 38.42,-110.53 78.14,-103.59 31.23,5.45 106.73,46.32 118.48,67.8 54.94,100.38 -173.78,131.17 -196.62,35.79zm156.79 -507.17c80.3,-39.42 62.27,191.25 -15.13,222.97 -75.52,30.95 -70.39,-180.99 15.13,-222.97zm139.24 35.42c55.29,-15.23 70.22,27.01 77.92,-64.55 -32.2,-0.27 -55.14,11.78 -90.22,10.86 -32.85,-0.88 -45.16,-13.85 -77.33,-18.84 -96.1,-14.92 -201.8,55.45 -209.12,169.86 -6.91,108 51.49,96.33 64.01,128.05 -64.12,80.89 -72.04,14.93 -31.53,123.19 -24.43,28.46 -187.52,83.69 -106.44,175.64 109.31,123.96 452.67,4.08 356.75,-152.75 -40.3,-65.9 -182.01,-73.25 -191.72,-122.39 12.79,-31.95 116.05,-33.58 160.52,-77.49 83.73,-82.68 31.8,-123.49 47.16,-171.58zm4022.99 -28.33c146.91,-35.44 -15.73,259.08 -57.62,290.15 -107.53,79.77 -56.59,-262.6 57.62,-290.15zm174.6 265.52c-35.98,-3.84 -89.86,117.52 -55.44,-59.47 11.28,-58.01 20.87,-112.76 34.94,-169.02 11.79,-47.2 78.47,-303.81 76.93,-330.32l-179.66 44.43 2.54 19.68c17.81,3.7 44.6,5.07 58.74,16.1l-34.55 173.23c-172.12,-11.26 -259.87,98.51 -289.92,250.9 -15.04,76.26 -8.13,201.19 89.99,165.7 65.83,-23.81 100.03,-98.5 138.27,-127.55l-7.31 127.02 10.95 0.63c67.92,17.91 174.54,-75.1 154.52,-111.33zm-3340.13 28.52c-1.53,-71.39 86.14,-282.65 41.05,-326.04 -75.82,-72.95 -192.97,114.75 -219.12,138.05l12.92 -144.56 -12.93 -1.16c-86.85,-19.14 -173.89,87.82 -155.04,115l58.08 -40.3 13.44 5.71 -74.64 340.03 94.18 -15.44c15.14,-15.12 77.02,-337.01 189.59,-326.94 30.23,56.44 -95.52,298.2 -33.46,337.08 40.14,28.39 180.17,-68.82 152.39,-114.63l-66.46 33.2zm2011.49 -292.75c144.78,-39.96 -23.46,257.21 -67.63,290.55 -90.17,68.08 -48.52,-258.5 67.63,-290.55zm98.77 294.85c-5.65,-51 69.82,-321.87 65.68,-327.94 -13.53,-19.84 -150.83,-8.75 -174.03,-1.78 -173.9,52.17 -243.66,293.55 -199.59,382.04 63.01,126.51 201.03,-86.67 222.61,-107.86l-10.55 135.15 15.93 1.24c55.15,19.88 175.99,-71.63 147.44,-117.07l-67.49 36.22zm-2628.49 -250.89c-17.02,68.67 -29.09,126.08 -62.04,175.79 -15.74,23.75 -106.33,149.68 -109.21,32.57 -5.99,-243.83 197.25,-313.27 171.25,-208.36zm45.98 251.41c-7.1,-56.03 71.6,-320.08 66.06,-328.95 -14.46,-23.17 -136.53,-14.2 -168.97,-2.84 -55.22,19.33 -91.86,43.38 -122.48,77.25 -46.23,51.13 -124.97,198.67 -82.56,301.79 56.13,136.5 207.93,-96.57 219.97,-96.39l-8 126.75 13.12 0.83c50.58,32.62 185.67,-80.32 149.92,-107.92l-67.06 29.48zm1083.5 678.26c147.61,-42.93 -31.3,259 -68.22,289.55 -91.97,76.11 -52.67,-254.39 68.22,-289.55zm170.38 266.46c-36.04,-14.11 -102.21,114.95 -60.88,-64.82 13.54,-58.89 27.58,-115.65 40.96,-172.67 18.31,-77.97 47.48,-81.28 -91.61,-75.92 -160.96,6.21 -302.35,188.12 -279.48,358.37 24.16,179.87 202,-37.92 229.13,-64.94l0.2 124.8c62.32,28.03 178.15,-64.62 161.68,-104.82zm-1975.61 322.31c142.32,60.1 329.17,-301.78 387.59,-407.73 136.44,-247.51 5.89,-257.35 -23.85,-199.29 -12.3,24 12.86,95.04 -16.71,168 -11.98,29.55 -44.15,120.94 -71.32,129.51 -13.04,-85.63 -14.41,-211.64 -40.52,-290.44 -33.11,-99.98 -186.14,41.13 -146.54,84.48l46.04 -35.79c28.81,24.29 72.39,293.28 63.44,348.55 -4.58,28.21 -71.93,98.86 -94.05,112.99 -27.4,17.5 -141.77,2.61 -104.08,89.72zm4785.56 -1568.38c115.33,-45.07 56.09,319.15 -21.1,345.79 -114.64,39.56 -58.95,-314.5 21.1,-345.79zm164.23 125.74c25.54,-270.57 -319.67,-199.16 -351.67,90.69 -30.1,272.77 323.76,205.05 351.67,-90.69zm-1392.91 1023.38c-35.6,230.21 -178.08,229.16 -137.05,-8.04 37.8,-218.53 174.12,-231.75 137.05,8.04zm102.43 -18.95c68,-286.4 -293.25,-244.66 -343.16,30.48 -50.35,277.61 272.38,267.65 343.16,-30.48zm-4059.2 -863.3c-32.03,-17.59 -94.78,118.07 -60.7,-49.37 18.68,-91.78 110.06,-470.93 109.5,-502 -25.51,-2.84 -68.85,12.7 -95.53,18.23 -56.22,11.66 -71.52,-5.29 -80.06,42.5l52.47 10.55c24.42,92.8 -136.88,510.08 -89.05,591.37 80.04,26.14 180.56,-82.16 163.37,-111.28zm171.53 -109.75c4.46,-57.73 66.83,-209.05 115.97,-144.33 46.31,60.98 -52.37,138.15 -115.97,144.33zm207.26 -92.97c47.03,-148.54 -178.25,-126.99 -266.14,14.09 -60.22,96.67 -92.75,343.54 92.51,304.81 49.76,-10.4 137.13,-70.64 145.33,-105.58 16.65,-71.03 -73.6,59.08 -147.99,33.36 -29.7,-10.27 -42.34,-47.94 -39,-90.78 2.95,-37.8 41.12,-34.33 77.16,-47.16 60.98,-21.71 120.78,-53.91 138.13,-108.74zm1751.87 95.26c0.33,-58.1 64.29,-198.63 111.75,-145.01 50.66,57.26 -49.61,139.02 -111.75,145.01zm35.62 221.84l122.46 -74.22c15.9,-16.69 21.21,-27.03 14.79,-45.05 -3.56,-1.45 2.32,-6.04 -9.58,-1.96l-78.5 51.63c-86.49,15.15 -112.88,-68.66 -87.97,-108.16 26.15,-34.36 172.83,-37.13 208.22,-133.52 44.92,-122.37 -103.4,-130.59 -184.29,-75.89 -128.32,86.77 -223.83,422.34 14.87,387.17zm-221.08 -542.32c-158.65,30.76 -90.85,97.97 -132.63,130.02 -34.24,17.28 -62.74,-20.23 -62.96,44.43l53.41 4.05c16.79,24.26 -63.92,262.68 -54.72,325.2 17.6,119.71 239.51,-42.96 202.11,-84.32l-88.06 55.07 -15.64 -13.18 66.58 -284.48c52.9,-12.39 93.39,19.89 95.48,-36.85l-88.43 -7.02 24.86 -132.92zm1070.24 975.77c-105.22,14.15 -98.67,48.63 -124.23,128l-77.33 28.6 6.58 15.94 56.03 10.27c3.54,80.62 -100.91,314.29 -29.85,357.27 60.79,27.41 207.85,-92.59 171.95,-121.45l-84.31 53.37 -15.43 -12.17 58.8 -282.57c127.69,-2.02 170.55,-39.89 13.02,-44.98l24.77 -132.28zm-1132.85 205.21c44.54,7.9 50.18,63.75 91.25,-4.45 20.65,-34.3 24.64,-78.14 -28.28,-82.77 -78.29,-6.83 -110.24,130.8 -142.63,152.95l16.09 -144.41 -9.5 -1.06c-81.3,-14.45 -174.56,79.19 -151.07,112.37l62.76 -44.43 10.9 5.79 -72.3 344.07 92.33 -14.18c34.53,-46.33 33.6,-217.98 130.45,-323.88zm873.35 -60.25c-114.6,-97.68 -271.42,66.84 -303.76,164.32 -66.65,200.86 66.37,311.1 214.22,186.06 12.81,-10.83 64.66,-52.47 52.61,-71.88 -14.81,-23.85 -54.53,26.03 -76.32,38.15 -167.59,93.21 -106.85,-301.54 -5.23,-295.9 45.69,2.54 36.62,57.67 71.27,59.95 34.15,2.26 54.74,-43.87 47.21,-80.7zm787.59 22.87c45.88,-20.45 58.91,31.24 76,48.32 26.32,26.29 64.26,-15.86 64.67,-48.15 0.99,-77.7 -130.1,-47.55 -179.77,-18.89 -76.44,44.11 -215.68,255.47 -116.1,363.8 86.83,94.48 244.87,-37.53 255.64,-74.41 18.61,-63.8 -55.84,12.59 -61.13,16.34 -170.85,121.25 -131.81,-245.8 -39.31,-287.01zm-5447.9 -747.82c13.73,67.89 261.72,76.77 337.21,88.1 63.96,9.59 123.84,17.18 186.49,25.54 27.03,3.62 70.99,12.79 97.81,14.08 57.67,2.76 39.09,-23.33 -5.02,-34.72 -110.99,-28.66 -220.82,-64.15 -328.07,-98.37 -63.74,-20.33 -315.74,-129.72 -288.42,5.37zm8461.46 4.74c53.03,-138.97 -237.62,-23.33 -280.58,-10.84 -107.15,31.17 -224.76,67.93 -332.9,98.28 -138.03,38.75 35.9,28.85 78.31,22.48 63.31,-9.51 122.74,-18.77 186.36,-27.65 78.02,-10.9 327.74,-27.04 348.81,-82.27zm-2146.68 61.43c-8.7,-61.16 51.41,-219.73 61.47,-290.23 17.47,-122.44 -209.86,16.86 -173.75,70.02l58.81 -39.96 -61.32 325.62 9.33 1.99c61.81,57.07 187.38,-63.88 169.94,-98.52l-64.48 31.08zm-1112.89 942.84c-37.74,-7.99 -99.43,103 -60.14,-49.12 14.2,-55 26.41,-105.65 40.12,-160.14 55.85,-221.99 -189.55,-25.3 -160.09,18.68l62.15 -37.07c15.85,57.4 -101.44,302.07 -42.81,336.65 44.95,34.75 177.86,-70.55 160.77,-109zm-4562.02 -698.64c39.99,-68.6 -260.55,73.52 -277.88,80.99 -61.84,26.69 -268.67,81.53 -239.47,162.13 33.85,93.45 214.8,-54.9 264.23,-84.93 23.39,-14.21 252.94,-157.88 253.12,-158.19zm7454.94 84.37c-28.73,-12.28 -283.02,-133.32 -281.59,-96.25 0.63,16.27 212.93,148.61 240.45,165.64 43.5,26.93 217.01,172.55 261.67,100.96 56.32,-90.29 -162.77,-145.67 -220.53,-170.35zm87.73 -792.72c26.51,-49.61 -34.63,-112.13 -104.58,-41.67l-319.9 334.04c-94.24,99.62 33.74,22.13 62.18,0.42 62.25,-47.51 347.55,-265.17 362.3,-292.79zm-7896.43 4.74c4.65,9.24 208.41,172.9 234.75,193.39 43.13,33.55 80.6,62.66 122.13,95.8 42.73,34.09 145.25,88.58 55.53,-3.29 -111.7,-114.38 -205.59,-224.15 -311.4,-337.7 -59.86,-64.22 -127.45,-0.78 -101.01,51.8zm5963.44 947.57c18.01,-71.48 -111.19,-115.2 -122.82,54.12 -5.97,86.95 -15.85,180.33 -26.08,267.51 -10.24,87.31 32.9,74.88 47.69,19.23 9.99,-37.6 19.48,-76.63 30.49,-116.5 21.09,-76.36 50.8,-145.34 70.72,-224.36zm-1963.93 -488c5.15,47.1 82.3,80.59 -4.83,150.5 -93.24,74.81 14.55,47.49 64.66,3.13 194.86,-172.53 -75.09,-293 -59.83,-153.63zm1747.14 1009.16c14.28,82.29 137.89,56.32 121.26,-37.55 -14.5,-81.81 -136.08,-47.87 -121.26,37.55zm-367.33 -1554.24c-59.82,-18.03 -79.31,21.9 -101.17,55.41 -11.96,18.33 -66.31,89.23 -58.77,96.24 22.19,20.62 89.59,-41.83 102.29,-52.64 26.84,-22.83 68.73,-46.34 57.65,-99.01zm-1402.02 976.29c-72.27,-16.3 -71.25,10.68 -100.41,56.21 -10.39,16.22 -19.97,32.12 -31.61,48.85 -6.66,9.59 -36.15,38.88 -18.33,48.3 20.94,11.05 89.66,-50.43 100.48,-60.7 23.13,-21.97 68.47,-47.88 49.87,-92.66zm2079.75 -977.55c-71.66,26.83 -51.91,146.83 23.59,119.91 70.1,-25 49.57,-147.31 -23.59,-119.91zm-1117.28 1053.29c33.86,-80.92 -67.39,-119.26 -99.77,-46.8 -35.96,80.49 68.19,122.29 99.77,46.8zm-1106.06 -496.34l78.5 -51.63c11.9,-4.08 6.02,0.51 9.58,1.96 6.42,18.02 1.11,28.36 -14.79,45.05l-122.46 74.22c59.83,-7.42 161.88,-86.21 143.45,-121.61 -4.36,-8.37 6.79,-3.16 -7.94,-6.53 -11.84,-2.71 -14.42,5.28 -23.92,14.57 -36.21,35.4 -43.4,25.73 -62.42,43.97z"/>
 </g>
</svg>
