<?xml version="1.0" encoding="UTF-8"?>
<!DOCTYPE svg PUBLIC "-//W3C//DTD SVG 1.1//EN" "http://www.w3.org/Graphics/SVG/1.1/DTD/svg11.dtd">
<!-- Creator: CorelDRAW -->
<svg xmlns="http://www.w3.org/2000/svg" xml:space="preserve" width="43.828mm" height="16.025mm" version="1.1" style="shape-rendering:geometricPrecision; text-rendering:geometricPrecision; image-rendering:optimizeQuality; fill-rule:evenodd; clip-rule:evenodd"
viewBox="0 0 4382.8 1602.5"
 xmlns:xlink="http://www.w3.org/1999/xlink"
 xmlns:xodm="http://www.corel.com/coreldraw/odm/2003">
 <defs>
  <style type="text/css">
   <![CDATA[
    .fil1 {fill:#FEFEFE}
    .fil0 {fill:#FE5401}
   ]]>
  </style>
 </defs>
 <g id="Capa_x0020_1">
  <metadata id="CorelCorpID_0Corel-Layer"/>
  <g id="_1816874674336">
   <path class="fil0" d="M4382.79 0.02l0 623.55c0,538.41 -440.5,978.91 -978.91,978.91l-3403.88 0 0 -1602.46 4382.79 0z"/>
   <g>
    <path class="fil1" d="M1146.27 1030.06l123.58 -15.94 -50.65 -391.11 96.6 124.82c20.41,26.53 73.61,106.26 93.47,122.48l71.33 -8.38 85.54 -217.2c5.41,-13.51 8.53,-21.98 14.53,-36l17.84 -38.37 51.99 393.24c22.76,-1.37 109.66,-10.09 122.56,-18.08 3.32,-4.16 -0.43,-29.17 -1.22,-34.98 -27.21,-199.84 -51.33,-420.01 -81.3,-613.33 -20.9,-4.83 -99.97,9.07 -124.43,14.36 -2.5,16.8 -60.19,156.24 -71.33,184.16 -12.71,31.85 -23.45,62.01 -36.14,93.63 -10.21,25.42 -26.35,75.41 -37.85,93.61 -0.72,-0.65 -1.9,-2.75 -2.08,-2.09l-221.06 -297.33c-20.88,-28.31 -17.02,-22.59 -57.36,-16.81 -24.37,3.49 -56.02,5.62 -78.95,11.24 -1.83,13.72 75.91,619.4 84.93,652.08z"/>
    <path class="fil1" d="M4382.79 139.42l0 110.65c-56.86,6.93 -76.48,46.17 -92.75,58.54l-72.48 -66.33c16.8,-43.32 86.87,-93.29 165.23,-102.86zm0 188.97l0 87.82c-2.96,1.28 -5.89,2.71 -8.77,4.31 -51.05,28.28 -33.45,82.06 8.77,95.92l0 98.06c-8.28,0.37 -17.2,0.3 -26.9,-0.27 -133.9,-7.91 -174.16,-183.05 -69.55,-251.11 33.04,-21.5 63.79,-31.03 96.45,-34.73zm-319.69 -328.37l49.13 0 82.76 628.72 -115.71 14.91 -6.24 -51.21c-23.2,30.29 -39.11,56.93 -88.21,72.15 -46.96,14.55 -92.39,9.36 -129.61,-6.15 -208.91,-87.07 -176.27,-454.07 56.92,-456.18 61.16,-0.56 88.82,30.71 107.97,38.87 -7.68,-60.73 -14.78,-121.53 -23.54,-182.11 -7.66,-53.02 -9.78,-39.99 37.89,-51.86l28.64 -7.14zm-840.43 682.78c-16.43,-12.23 -64.42,-53.75 -78.69,-58.67 -27.46,27.04 -55.72,63.82 -117.63,59.63 -40.47,-2.74 -86.06,-32.85 -94.44,-73.01 61.52,-16.28 252.65,-25.96 296.88,-42.19 -8.93,-121.9 -56.97,-221.46 -178.78,-244.62 -60.47,-11.49 -123.31,10.71 -163.91,42.82 -181.96,143.92 -52.67,496.47 219.77,412.16 46.63,-14.42 110.17,-65.63 116.8,-96.12zm141.3 -347.16l-7.14 -48.68 -112.72 14.16c-3.38,26.76 49.4,383.04 55.97,445.69l119.51 -16.02c-9.32,-70.75 -18.47,-140.72 -27.59,-210.69 -9.34,-71.88 -5.02,-127.8 63.44,-139.36 128.16,-21.65 88.84,195.24 127.02,328.6 145.59,-13.85 121.36,6.27 104.19,-121.89 -15.43,-115.19 -13.25,-309.66 -164.52,-328.9 -33.19,-4.22 -71.32,2.71 -98.19,18.39 -43.08,25.18 -46.1,47.26 -59.97,58.7zm537 -9.2c-124.32,57.73 -39.45,280.96 88.12,220.87 119.6,-56.33 45.43,-282.89 -88.12,-220.87zm-980.16 201.29l181.8 -24.47c-24.11,-115.16 -183.64,-90.07 -181.8,24.47zm-887.49 -144.55l182.39 -23.19 68.87 520.05 129.01 -16.89 -66.54 -520.38 175.48 -23.76 -16.09 -129.22c-16.81,-2.74 -463.07,55.31 -489.6,64.08l16.48 129.31zm621.03 448.65l123.82 -16.43c-8.53,-60.87 -51.22,-418.68 -60.93,-444.59l-118.99 15.57c-3.22,25.44 49.05,386.5 56.1,445.45zm-46.03 -674.1c-94.56,40.4 -37.3,191.72 62,147.92 85.78,-37.84 36.36,-189.94 -62,-147.92z"/>
    <path class="fil1" d="M1867.82 934.76l118.44 -14.66c1.59,-22.51 -51.68,-425.34 -58.83,-444.97l-117.14 14.68 57.53 444.95z"/>
    <path class="fil1" d="M529.91 1295l4.87 5.74c7.71,14.18 4.3,12.06 7.21,29.85 5.89,36.12 10.02,-0.85 11.15,27.34 -4.27,-35.88 -4.14,-40.15 0.33,-68.42 0.61,-0.43 1.79,-1.4 2.09,-0.81 0.07,0.14 7.13,-1.21 8.46,-9.13 10.73,4.6 4.13,1.1 12.63,8.32 18.5,15.7 -1.21,15.44 20.98,20.87l7.42 1.48c-4.25,10.89 -9.23,11.17 -0.71,18.82 1.83,1.63 -3.06,5.78 7.5,1.93 21,-7.69 -19.01,12.08 6.15,-8.83 12.99,-10.79 23.03,1.68 35.28,3.83l6.5 34.33c22.15,-10.83 69.94,-7.55 69.98,-7.56 6.98,-1.81 5.9,-5.61 25.36,-8.12 9.57,22.58 8.59,4.57 30.93,18.62l4.31 3.39c6.27,4.11 6.93,5 15.91,5.87 2.3,0.23 13.55,-0.64 14.49,-0.87l9.44 -3.87c7.48,-2.65 23.78,-4.94 37.35,-6.66 6.57,17.63 -0.21,15.83 9.72,22.03 1.15,-3.93 -1.81,-5.31 6.24,-12.38 46.06,15.37 1.46,6.13 48,2.4 17.2,-1.38 9.96,1.81 16.67,1.37 14.42,-0.94 0.75,-10.61 32.72,-10.86l24.14 -0.62c2.11,4.04 4.93,1.63 -2.16,11.88 9.54,-2.24 19.95,-4.55 22.8,-6.63 13.35,-9.71 -1.34,-2.45 8.3,-9.48 8.52,-6.22 3.4,-3.93 16.89,-5.61 5.29,7.94 8.73,16.26 13.37,25.09 -4.92,-40.12 0.75,-23.97 1.81,-43.11 1.35,-24.21 -7.88,-23.14 -1.59,-55.92 7.57,-39.37 -41.81,-267.83 -33.58,-298.95 -17.7,-40.48 -49.12,-27.77 -131.82,-14.21 -7.12,-53.39 -13.2,-85.2 -48.32,-117.36 -69.1,-63.26 -165.61,-47.5 -213.78,24.64 -27.36,40.99 -26.49,70.36 -18.91,128.27 -101.7,22.15 -128.76,-11.23 -114.54,93.89 8.87,65.59 19.99,133.84 26.41,199.44zm153.07 -300.71l150.74 -19.84c-6.69,-43.5 -19.53,-104.33 -89.65,-95.06 -76.36,10.1 -64.17,79.98 -61.09,114.9zm206.04 78.24c-44.27,27.36 -6.62,86.3 35.61,63.7 40.69,-21.79 5.74,-89.24 -35.61,-63.7zm-255.52 33.26c-41.96,25.08 -11.61,87.24 33.09,65.3 39.95,-19.61 9.18,-90.57 -33.09,-65.3z"/>
    <path class="fil1" d="M-0 1275.86l0 -117.89c9.83,70.57 19.23,135.27 21.28,154.04 -10.34,-7.49 -5.1,-0.56 -11.45,-13.61l-5.12 -45.19c1.62,18.76 8.42,16.95 -4.71,22.65zm0 -355.14l0 -107.75c48.26,-24.28 71.89,-63.69 86.3,-71.53 22.41,17.99 34.81,29.77 68.79,40.17 150.2,46.03 226.51,-72.07 239.12,-80.54 40.21,30.05 86.49,59.02 163.55,47.49 69.57,-10.4 115.95,-50.63 141.81,-87.64 20.63,6.44 48.77,46.08 125.04,49.27 80.79,3.38 108.36,-31.25 144.01,-51.31l31.46 242.53 -62.81 7.13c-30.33,-133.01 -171.92,-187.13 -278.01,-125.96 -69.97,40.33 -37.65,56.92 -88.47,63.16 -99.19,12.18 -198.73,26.03 -297.83,39.31 -87.99,11.78 -185.12,20.65 -272.96,35.67z"/>
    <path class="fil1" d="M-0 139.49l0 -93.61c32.63,-17.38 66.59,-32.73 101.76,-45.86l213.12 0c-97.7,18.59 -179.07,54.77 -260.55,103.39 -15.42,9.2 -34.15,21.62 -54.33,36.08zm598.92 -139.47l91.73 0c56.91,20.94 109.47,47.58 152.77,79.05l65.89 45.71c10.95,6.87 77.3,69.56 87.42,86.36 -13.15,-4.47 -7.87,-2.36 -19.28,-12.83 -33.05,-30.32 -55,-43.53 -74.36,-60.83 -13.72,-12.23 -14.69,-12.35 -28.98,-21.2 -88.16,-54.59 -176.28,-96.02 -275.19,-116.26z"/>
    <path class="fil1" d="M4276.1 1066.59c-3.46,6.76 -7,13.47 -10.61,20.14l-334.75 48.53c-185.4,25.64 -386.48,57.62 -567.42,80.4 -467.06,58.82 -929.12,123.51 -1395.24,183.9l-676.31 89.39c-9.69,2.43 -31.52,5.04 -56.9,7.53 -300.54,39.74 -594.38,66.18 -893.75,106l-232.05 0c159.2,-29.48 329.2,-49.83 456.21,-65.83 -15.6,-43.82 -29.68,-188.17 -35.37,-241.65l4.87 5.74c7.71,14.18 4.31,12.04 7.22,29.85 5.88,36.12 10.03,-0.85 11.14,27.34 -4.28,-35.88 -4.15,-40.15 0.32,-68.43 0.62,-0.42 1.79,-1.39 2.1,-0.8 0.07,0.14 7.13,-1.21 8.45,-9.14 10.73,4.61 4.13,1.11 12.64,8.32 18.5,15.71 -1.21,15.45 20.98,20.88l7.42 1.48c-4.25,10.89 -9.23,11.17 -0.71,18.82 1.82,1.64 -3.06,5.79 7.5,1.93 21,-7.69 -19.01,12.08 6.15,-8.83 12.99,-10.8 23.02,1.68 35.27,3.83l6.51 34.33c22.15,-10.83 69.94,-7.54 69.98,-7.55 6.97,-1.82 5.9,-5.62 25.35,-8.14 9.58,22.59 8.59,4.58 30.94,18.63l4.31 3.4c6.27,4.1 6.93,4.99 15.91,5.86 2.29,0.22 13.55,-0.64 14.48,-0.86l9.45 -3.88c7.48,-2.64 23.78,-4.94 37.35,-6.67 6.57,17.65 -0.21,15.84 9.72,22.05 1.15,-3.94 -1.81,-5.32 6.23,-12.4 46.08,15.38 1.47,6.14 48.01,2.41 17.19,-1.38 9.96,1.81 16.66,1.37 14.43,-0.94 0.77,-10.6 32.73,-10.86l24.13 -0.61c2.12,4.03 4.94,1.61 -2.15,11.87 9.53,-2.24 19.95,-4.55 22.8,-6.63 13.36,-9.72 -1.33,-2.46 8.3,-9.48 8.52,-6.22 3.4,-3.93 16.89,-5.6 5.29,7.93 8.73,16.25 13.37,25.09 -4.92,-40.13 0.75,-23.99 1.81,-43.11 1.34,-24.23 -7.89,-23.15 -1.59,-55.92 7.57,-39.38 -41.81,-267.86 -33.58,-298.95 8.48,22.25 43.76,321.3 52.43,388.78 2.83,21.98 5.89,43.91 8.72,65.86 3.38,26.25 -1.99,34.13 -3.39,43.67l615.67 -81.54c568.5,-76.16 1141.51,-144.15 1708.55,-223.42 78.43,-10.93 518.4,-66.55 863.25,-107.1z"/>
    <path class="fil1" d="M583.38 258.85c0.51,26.03 90.87,202.81 112.87,247.17 14.66,29.54 19.33,63.68 34.3,87.55 70.35,112.12 265.03,51.71 242.68,-85.83l-101.81 10.72 17.39 -10.54c19.04,-7.11 46.56,-12.41 62.28,-25.75 -8.96,-21.68 -158.19,-190.52 -193.23,-232.49 -7.13,-8.54 -7.32,-13.4 -23.76,-12.76 -15.44,0.63 -146.36,18.84 -150.72,21.93z"/>
    <path class="fil1" d="M97.67 615.24c5.91,12.12 14.33,2.91 52.99,-1.89 21.04,-2.62 44.61,-5.57 65.67,-6.48 29.87,-1.29 96.3,-3.89 126.44,-10.36 6.04,12.97 1.57,8.29 3.69,16.47 0.18,0.73 -0.81,8.29 6.77,15.69l1.65 -40.25 -80.57 10.11c-2.78,0.3 -8.75,0.88 -11.37,0.85 -26.68,-0.31 15.53,1.86 -6.82,-0.53 -0.98,-0.11 -2.38,-0.51 -3.15,-0.62 -0.76,-0.11 -2.1,-0.36 -3.1,-0.72 30.15,-11.46 70.54,-17.33 99.09,-31 -2.7,-39.27 -22.07,-250.39 -33.03,-271.98 -13.48,-2.78 -158.89,16.64 -172.54,22.72 -7.6,15.42 -48.28,278.27 -45.72,297.99z"/>
    <path class="fil1" d="M391.85 496.88c0.84,1.08 1.62,1.36 2.17,3.51 1.57,6.06 5.03,0.19 10.23,38.1 1.94,14.17 4.36,33.26 5.96,45.25 33.02,-7.41 107.61,-12.18 119.05,-17.15 11.56,-5.01 13.27,-12.4 32.83,-14.89 29.3,0.04 62.07,-16.16 89.29,-24.95 -12.15,-40.64 -37.29,-93.2 -55.29,-133.82 -13.19,-29.78 -40.95,-111.71 -58.4,-127.62 -18.27,-3.43 -159.51,16.68 -173.29,23.53 -3.68,33.13 21.2,165.83 27.45,208.04z"/>
    <path class="fil1" d="M-0 1564.08l0 -288.22c13.13,-5.7 6.33,-3.89 4.71,-22.65l5.12 45.19c6.35,13.05 1.11,6.12 11.45,13.61 -2.05,-18.77 -11.45,-83.47 -21.28,-154.04l0 -25.31c3.49,24.11 6.88,47.94 9.87,71.16 4.15,32.25 25.63,250.86 41.77,260.89 25.23,15.21 375.2,-54.21 442.57,-51.92 7.02,17.38 11.93,63.17 11.36,82.56 -138.24,21.61 -290.43,38.62 -431.65,57.79 -31.63,4.29 -55.52,10.22 -73.92,10.94z"/>
    <path class="fil1" d="M-0 623.38l0 -290.2c41.26,-5.65 88.26,-11.06 96.03,-9.69 11.31,17.21 -38.17,228.39 -48.22,267.7 -5.81,22.69 -10.33,20.36 -32.93,27.39 -5.32,1.66 -10.15,3.31 -14.88,4.8z"/>
    <path class="fil1" d="M-0 743.68l0 -109.28 43.64 -5.54c8.71,46.07 -10.5,87.98 -43.64,114.82z"/>
    <path class="fil1" d="M562.09 551.7c-19.56,2.49 -21.27,9.88 -32.83,14.89 -11.44,4.97 -86.03,9.74 -119.05,17.15 -1.6,-11.99 -4.02,-31.08 -5.96,-45.25 -5.2,-37.91 -8.66,-32.04 -10.23,-38.1 -0.55,-2.15 -1.33,-2.43 -2.17,-3.51 5.91,42.5 9.59,104.89 29.32,137.31 70.77,116.3 271.87,41.61 240.05,-85.62 -16.95,0.98 -33.62,3.29 -50.5,5.2l-37.56 3.34c-10.24,-1.86 -4.21,0.65 -11.07,-5.41z"/>
    <path class="fil1" d="M41.33 1383.41c18.4,-33.2 44.4,-58.96 67.55,-91.74 12.23,-17.3 22.86,-28.88 34.96,-46.19 7.35,-10.52 12.24,-13.38 19.84,-22.96 6.58,-8.31 11.27,-15.99 17.21,-25.03 17.1,-26 12.12,-23.81 34.48,-46.59 14,-14.27 20.77,-32.68 31.87,-48.56 18.61,-26.64 72.73,-79.87 36.07,-107.48 -31.72,-23.9 -49.5,22.78 -87.13,65.05 -12.95,14.55 -20.79,32.64 -31.7,48.62 -7.77,11.41 -12.69,12.49 -20.21,22.67 -10.84,14.63 -17.46,33.45 -31.75,48.77 -22.88,24.52 -17.34,26.27 -31.76,48.6 -8.4,13.02 -11.48,11.42 -21.03,21.9 -7.05,7.74 -10.37,13.52 -17.65,21.19 -9.46,10.02 -15.12,9.12 -14.05,27.7 0.87,15.17 9.72,68.37 13.3,84.05z"/>
    <path class="fil1" d="M353.23 628.67c-7.58,-7.4 -6.59,-14.96 -6.77,-15.69 -2.12,-8.18 2.35,-3.5 -3.69,-16.47 -30.14,6.47 -96.57,9.07 -126.44,10.36 -21.06,0.91 -44.63,3.86 -65.67,6.48 -38.66,4.8 -47.08,14.01 -52.99,1.89 -7.51,11.87 1.4,33.24 7.32,46.15 45.46,99.16 215.3,103.58 248.24,-32.72z"/>
    <path class="fil1" d="M493.59 935.65c-10.14,-6.88 -24.13,-11.66 -36.9,-6.6 -15.33,6.09 -33.22,41.5 -40.13,53.23 -7.8,13.21 -13.42,16.15 -22.66,27.67 -17.24,21.52 -23.58,35.35 -38.24,57.58l-41.96 54.64c-20.05,35.17 -26.26,32.24 -56.38,81.85 -8.34,13.77 -14.23,15.74 -22.83,27.69l-39.19 56.89c-7.05,10.17 -9.65,18.25 -17.16,28.44 -7.91,10.76 -20.15,17.14 -12.33,34.08 5.48,11.86 20.27,14.9 34.57,8.05 11.05,-5.3 14.61,-17.3 20.27,-26.95l82.57 -110.39c14.82,-19.41 21.94,-38.88 38.95,-57.09l95.32 -138.86c14.93,-16.33 49.49,-71.02 56.1,-90.23z"/>
    <path class="fil1" d="M1822.2 261.49c-87.42,40.58 -35.91,190.87 59.55,148.3 86.49,-38.57 34.54,-191.96 -59.55,-148.3z"/>
    <path class="fil1" d="M2272.99 1054.94c-88.6,35.86 -39.95,194.58 58.94,150.51 32.2,-14.35 52.86,-58.16 36.11,-104.26 -13.1,-36.02 -53.2,-63.18 -95.05,-46.25zm501.44 -66.14c-82.01,32.9 -41.91,190.94 57.3,151.97 84.79,-33.32 37.8,-190.09 -57.3,-151.97zm-1105.51 303.09l23.98 -0.9 -13.41 -108.63c9.91,5 61.61,67.45 75.5,83.68 13.03,15.24 14.37,16.15 36.42,10.91l-20.18 -155.4 -21.92 2.83 12.21 107.43c-13.22,-6.89 -66.37,-70.91 -78.04,-84.39 -10.99,-12.67 -13.27,-14.34 -33.49,-9.49l18.93 153.96zm497.64 -82.7l-8.67 -65.49 -56.17 6.59 2.37 22.53 32.28 -3 4.54 29.63c-93.82,50.82 -112.26,-68.36 -65.65,-91.89 32.66,-16.48 41.03,2.04 60.88,5.82l11.38 -19.07c-58.89,-40.67 -131.47,-2.89 -121.07,73.58 11.05,81.13 93.43,84.38 140.11,41.3zm-308.2 -58.49l15.2 116.25 97.19 -12.69 -2.61 -24.35 -72.09 9.43 -6.25 -41.9 62.47 -9.21 -2.05 -21.6c-30.27,-0.42 -33.08,1.93 -61.89,5.68l-7.41 -40.41 70.43 -10.03 -2.19 -22.78 -96.22 11.67 5.42 39.94zm-387.76 10.31l-24.47 2.94c5.96,44.24 33.63,130.48 -16.26,137.82 -47.2,6.96 -43.01,-60.56 -52.4,-127.94l-23.8 2.77c8.49,71.18 4.19,161.39 79.58,150.57 74.62,-10.72 46.91,-96.26 37.35,-166.16zm1305.35 -143.33c-50.02,35.26 -5.32,133.71 54.8,94.94 48.21,-31.09 4.87,-136.99 -54.8,-94.94zm-501.46 66.21c-53.17,36.93 -2.76,135.27 54.22,94.49 45.55,-32.61 5.21,-135.71 -54.22,-94.49zm298.07 63.16l-17.18 -12.84c-12.53,11.48 -25.24,29.57 -53.54,24.49 -41.87,-7.49 -57.09,-78.61 -19.31,-103.28 25.56,-16.71 45.02,-4.33 62.95,5.68l12.86 -17.27c-48.48,-49.61 -131.47,-9.58 -121.38,69.93 10.23,80.67 106.41,95.37 135.6,33.29zm-1403.54 59.07l2.5 15.41 23.58 1.28c9.6,-0.97 13.15,-2.21 23.2,-1.71l18.05 129.39 24 -3.71 -16.58 -130.7c29.96,-4.01 34.99,-2.79 44.72,-9.97l-1.39 -15.54c-8.51,-4.91 -8.5,-5.09 -27.66,-2.37l-60.58 8.17c-12.13,1.46 -21.37,1.67 -29.84,9.75zm1475.07 -37.89l24.21 -3.01 -21.1 -155.95 -22.24 2.62 19.13 156.34z"/>
    <path class="fil1" d="M3992.64 919.96c-5.68,-3.2 -1.66,0.25 -7.75,-6.51 -10.51,-11.7 -36.62,-58.04 -53.83,-76.22l-25.66 2.67 21.4 155.9 23.79 -3.18 -12.52 -102.85c22.66,19.31 41.36,74.07 59.72,69.33 9.89,-2.55 22.82,-55.48 34.9,-81.45l14.32 102.63 23.68 -3.82 -20.31 -155.23c-41.63,1.31 -27.27,23.84 -57.74,98.73zm-605.18 145.84l24.03 -0.67 -13.61 -108.47c16.13,11.23 55.77,61.99 72.82,82.11 12.07,14.23 12.36,16.42 36.25,12.45l-14.24 -115.8c-0.56,-5.37 -1.12,-14.78 -1.96,-19.58l-8.04 -20.53 -14.19 2.16c-6.89,14.55 -0.01,36.77 2.3,52.62 2.76,18.74 4.95,37.52 6.97,56.31l-74.53 -82.71c-11.75,-14.41 -13.51,-17.81 -35.35,-12.32l19.55 154.43zm-264.32 -4.33l-7.79 13.16c31.57,58.53 142.37,1.67 90.69,-54.3 -21.28,-23.04 -60.9,-13.19 -70.33,-28.93 -9.26,-15.47 2.61,-27.03 15.83,-29.79 16.69,-3.47 26.95,4.67 37.03,8.62 8.19,-8.28 8.81,-9.6 10.91,-19.67 -65.14,-48.15 -121.95,31.96 -74.75,66.08 18.3,13.23 63.78,8.21 67.26,33.12 3.13,22.31 -26.4,31.07 -49.43,19.57 -12.87,-6.42 -2.97,-5.8 -19.42,-7.86zm1093.36 -238.92l43.53 -3.05 18.25 130.21 23.63 -3.76 -16.59 -130.74 43.79 -6.21 -1.95 -22.8 -112.81 12.82 2.15 23.53zm-545.49 207.08l92.05 -11.93 -2.2 -24.2 -68.2 9.09 -18.55 -131.92 -22.25 2.64 19.15 156.32zm-384.17 49.32l24.21 -3 -21.11 -155.96 -22.23 2.63 19.13 156.33zm537.18 -70.76l24.22 -3.01 -21.12 -155.96 -22.23 2.64 19.13 156.33zm310.86 -40.94l24.21 -3 -21.1 -155.96 -22.24 2.62 19.13 156.34z"/>
   </g>
  </g>
 </g>
</svg>
